%TF.GenerationSoftware,KiCad,Pcbnew,7.0.9*%
%TF.CreationDate,2023-12-09T12:48:13-06:00*%
%TF.ProjectId,ShutterDriver,53687574-7465-4724-9472-697665722e6b,1*%
%TF.SameCoordinates,Original*%
%TF.FileFunction,Soldermask,Bot*%
%TF.FilePolarity,Negative*%
%FSLAX46Y46*%
G04 Gerber Fmt 4.6, Leading zero omitted, Abs format (unit mm)*
G04 Created by KiCad (PCBNEW 7.0.9) date 2023-12-09 12:48:13*
%MOMM*%
%LPD*%
G01*
G04 APERTURE LIST*
G04 Aperture macros list*
%AMRoundRect*
0 Rectangle with rounded corners*
0 $1 Rounding radius*
0 $2 $3 $4 $5 $6 $7 $8 $9 X,Y pos of 4 corners*
0 Add a 4 corners polygon primitive as box body*
4,1,4,$2,$3,$4,$5,$6,$7,$8,$9,$2,$3,0*
0 Add four circle primitives for the rounded corners*
1,1,$1+$1,$2,$3*
1,1,$1+$1,$4,$5*
1,1,$1+$1,$6,$7*
1,1,$1+$1,$8,$9*
0 Add four rect primitives between the rounded corners*
20,1,$1+$1,$2,$3,$4,$5,0*
20,1,$1+$1,$4,$5,$6,$7,0*
20,1,$1+$1,$6,$7,$8,$9,0*
20,1,$1+$1,$8,$9,$2,$3,0*%
G04 Aperture macros list end*
%ADD10R,1.371600X1.371600*%
%ADD11C,1.371600*%
%ADD12RoundRect,0.250000X1.330000X1.800000X-1.330000X1.800000X-1.330000X-1.800000X1.330000X-1.800000X0*%
%ADD13O,3.160000X4.100000*%
%ADD14C,3.000000*%
%ADD15R,2.000000X2.000000*%
%ADD16C,2.000000*%
%ADD17RoundRect,0.102000X0.699000X0.699000X-0.699000X0.699000X-0.699000X-0.699000X0.699000X-0.699000X0*%
%ADD18C,1.602000*%
%ADD19C,3.204000*%
%ADD20R,1.361948X1.361948*%
%ADD21C,1.361948*%
G04 APERTURE END LIST*
D10*
%TO.C,R5*%
X186055000Y-126492000D03*
D11*
X186055000Y-112014000D03*
%TD*%
D10*
%TO.C,R2*%
X69215000Y-126492000D03*
D11*
X69215000Y-112014000D03*
%TD*%
D12*
%TO.C,J12*%
X250975000Y-119062500D03*
D13*
X247015000Y-119062500D03*
%TD*%
D12*
%TO.C,J8*%
X96543000Y-119253000D03*
D13*
X92583000Y-119253000D03*
%TD*%
D10*
%TO.C,R4*%
X147447000Y-126492000D03*
D11*
X147447000Y-112014000D03*
%TD*%
D14*
%TO.C,J14*%
X265811000Y-96139000D03*
%TD*%
D15*
%TO.C,C5*%
X196723000Y-121713000D03*
D16*
X196723000Y-116713000D03*
%TD*%
D17*
%TO.C,J3*%
X82931000Y-74549000D03*
D18*
X80391000Y-74549000D03*
D19*
X88011000Y-69469000D03*
X77851000Y-69469000D03*
%TD*%
D12*
%TO.C,J7*%
X57000000Y-118237000D03*
D13*
X53040000Y-118237000D03*
%TD*%
D15*
%TO.C,C6*%
X234315000Y-121522500D03*
D16*
X234315000Y-116522500D03*
%TD*%
D15*
%TO.C,C3*%
X118491000Y-121713000D03*
D16*
X118491000Y-116713000D03*
%TD*%
D15*
%TO.C,C2*%
X79883000Y-121713000D03*
D16*
X79883000Y-116713000D03*
%TD*%
D20*
%TO.C,U3*%
X136779000Y-130429000D03*
D21*
X134239000Y-130429000D03*
X131699000Y-130429000D03*
X129159000Y-130429000D03*
X126619000Y-130429000D03*
X124079000Y-130429000D03*
X121539000Y-130429000D03*
%TD*%
D10*
%TO.C,R3*%
X107823000Y-126492000D03*
D11*
X107823000Y-112014000D03*
%TD*%
D17*
%TO.C,J6*%
X151511000Y-74549000D03*
D18*
X148971000Y-74549000D03*
D19*
X156591000Y-69469000D03*
X146431000Y-69469000D03*
%TD*%
D20*
%TO.C,U5*%
X215011000Y-130429000D03*
D21*
X212471000Y-130429000D03*
X209931000Y-130429000D03*
X207391000Y-130429000D03*
X204851000Y-130429000D03*
X202311000Y-130429000D03*
X199771000Y-130429000D03*
%TD*%
D12*
%TO.C,J11*%
X213383000Y-119253000D03*
D13*
X209423000Y-119253000D03*
%TD*%
D10*
%TO.C,R6*%
X223647000Y-126301500D03*
D11*
X223647000Y-111823500D03*
%TD*%
D12*
%TO.C,J10*%
X174775000Y-119253000D03*
D13*
X170815000Y-119253000D03*
%TD*%
D20*
%TO.C,U1*%
X58628000Y-129413000D03*
D21*
X56088000Y-129413000D03*
X53548000Y-129413000D03*
X51008000Y-129413000D03*
X48468000Y-129413000D03*
X45928000Y-129413000D03*
X43388000Y-129413000D03*
%TD*%
D14*
%TO.C,J16*%
X265811000Y-89789000D03*
%TD*%
%TO.C,J15*%
X265811000Y-77089000D03*
%TD*%
D17*
%TO.C,J1*%
X34671000Y-74549000D03*
D18*
X32131000Y-74549000D03*
D19*
X39751000Y-69469000D03*
X29591000Y-69469000D03*
%TD*%
D17*
%TO.C,J5*%
X128651000Y-74549000D03*
D18*
X126111000Y-74549000D03*
D19*
X133731000Y-69469000D03*
X123571000Y-69469000D03*
%TD*%
D14*
%TO.C,J13*%
X265811000Y-108839000D03*
%TD*%
D20*
%TO.C,U4*%
X176403000Y-130429000D03*
D21*
X173863000Y-130429000D03*
X171323000Y-130429000D03*
X168783000Y-130429000D03*
X166243000Y-130429000D03*
X163703000Y-130429000D03*
X161163000Y-130429000D03*
%TD*%
D15*
%TO.C,C4*%
X158115000Y-121713000D03*
D16*
X158115000Y-116713000D03*
%TD*%
D20*
%TO.C,U6*%
X252603000Y-130238500D03*
D21*
X250063000Y-130238500D03*
X247523000Y-130238500D03*
X244983000Y-130238500D03*
X242443000Y-130238500D03*
X239903000Y-130238500D03*
X237363000Y-130238500D03*
%TD*%
D17*
%TO.C,J2*%
X60071000Y-74549000D03*
D18*
X57531000Y-74549000D03*
D19*
X65151000Y-69469000D03*
X54991000Y-69469000D03*
%TD*%
D12*
%TO.C,J9*%
X135151000Y-119253000D03*
D13*
X131191000Y-119253000D03*
%TD*%
D20*
%TO.C,U2*%
X98171000Y-130429000D03*
D21*
X95631000Y-130429000D03*
X93091000Y-130429000D03*
X90551000Y-130429000D03*
X88011000Y-130429000D03*
X85471000Y-130429000D03*
X82931000Y-130429000D03*
%TD*%
D15*
%TO.C,C1*%
X40340000Y-120697000D03*
D16*
X40340000Y-115697000D03*
%TD*%
D17*
%TO.C,J4*%
X105791000Y-74549000D03*
D18*
X103251000Y-74549000D03*
D19*
X110871000Y-69469000D03*
X100711000Y-69469000D03*
%TD*%
D10*
%TO.C,R1*%
X29672000Y-125476000D03*
D11*
X29672000Y-110998000D03*
%TD*%
M02*
