%TF.GenerationSoftware,KiCad,Pcbnew,7.0.9*%
%TF.CreationDate,2023-12-09T12:48:39-06:00*%
%TF.ProjectId,ShutterDriver,53687574-7465-4724-9472-697665722e6b,1*%
%TF.SameCoordinates,Original*%
%TF.FileFunction,Plated,1,2,PTH,Drill*%
%TF.FilePolarity,Positive*%
%FSLAX46Y46*%
G04 Gerber Fmt 4.6, Leading zero omitted, Abs format (unit mm)*
G04 Created by KiCad (PCBNEW 7.0.9) date 2023-12-09 12:48:39*
%MOMM*%
%LPD*%
G01*
G04 APERTURE LIST*
%TA.AperFunction,ViaDrill*%
%ADD10C,0.400000*%
%TD*%
%TA.AperFunction,ComponentDrill*%
%ADD11C,0.853948*%
%TD*%
%TA.AperFunction,ComponentDrill*%
%ADD12C,0.863600*%
%TD*%
%TA.AperFunction,ComponentDrill*%
%ADD13C,0.890000*%
%TD*%
%TA.AperFunction,ComponentDrill*%
%ADD14C,1.000000*%
%TD*%
%TA.AperFunction,ComponentDrill*%
%ADD15C,1.500000*%
%TD*%
%TA.AperFunction,ComponentDrill*%
%ADD16C,1.700000*%
%TD*%
%TA.AperFunction,ComponentDrill*%
%ADD17C,2.000000*%
%TD*%
G04 APERTURE END LIST*
D10*
X31115000Y-82169000D03*
X34671000Y-97409000D03*
X45339000Y-137795000D03*
X46355000Y-137795000D03*
X47371000Y-137795000D03*
X48387000Y-137795000D03*
X56515000Y-82169000D03*
X60071000Y-99949000D03*
X62230000Y-98679000D03*
X65151000Y-97409000D03*
X79375000Y-82169000D03*
X82931000Y-102489000D03*
X84963000Y-138811000D03*
X85979000Y-138811000D03*
X86995000Y-138811000D03*
X88011000Y-138811000D03*
X101727000Y-101219000D03*
X102235000Y-82169000D03*
X104140000Y-99949000D03*
X105791000Y-108331000D03*
X123571000Y-138811000D03*
X124587000Y-138811000D03*
X124841000Y-82169000D03*
X125603000Y-138811000D03*
X126619000Y-138811000D03*
X128651000Y-106934000D03*
X136525000Y-97409000D03*
X136525000Y-98679000D03*
X136525000Y-99949000D03*
X136525000Y-101219000D03*
X136525000Y-102489000D03*
X147574000Y-101219000D03*
X147955000Y-95631000D03*
X147955000Y-96647000D03*
X148971000Y-95631000D03*
X148971000Y-96647000D03*
X150368000Y-103759000D03*
X150368000Y-108331000D03*
X155321000Y-82677000D03*
X163195000Y-138811000D03*
X164211000Y-138811000D03*
X165227000Y-138811000D03*
X166243000Y-138811000D03*
X178054000Y-105029000D03*
X179959000Y-108331000D03*
X201803000Y-138811000D03*
X202819000Y-138811000D03*
X203835000Y-138811000D03*
X204851000Y-138811000D03*
X217170000Y-102489000D03*
X218313000Y-101219000D03*
X219456000Y-98679000D03*
X220726000Y-99949000D03*
X239395000Y-138557000D03*
X240411000Y-138557000D03*
X241427000Y-138557000D03*
X242443000Y-138557000D03*
X245237000Y-86995000D03*
X245237000Y-88011000D03*
X245237000Y-89027000D03*
X245237000Y-90043000D03*
X246253000Y-86995000D03*
X246253000Y-88011000D03*
X246253000Y-89027000D03*
X246253000Y-90043000D03*
X247269000Y-86995000D03*
X247269000Y-88011000D03*
X247269000Y-89027000D03*
X247269000Y-90043000D03*
X256286000Y-139319000D03*
X256286000Y-140589000D03*
X256286000Y-141859000D03*
X256286000Y-143129000D03*
X256286000Y-144399000D03*
X256286000Y-145669000D03*
X256286000Y-146939000D03*
X258191000Y-139319000D03*
X258191000Y-140589000D03*
X258191000Y-141859000D03*
X258191000Y-143129000D03*
X258191000Y-144399000D03*
X258191000Y-145669000D03*
X258191000Y-146939000D03*
D11*
%TO.C,U1*%
X43388000Y-129413000D03*
X45928000Y-129413000D03*
X48468000Y-129413000D03*
X51008000Y-129413000D03*
X53548000Y-129413000D03*
X56088000Y-129413000D03*
X58628000Y-129413000D03*
%TO.C,U2*%
X82931000Y-130429000D03*
X85471000Y-130429000D03*
X88011000Y-130429000D03*
X90551000Y-130429000D03*
X93091000Y-130429000D03*
X95631000Y-130429000D03*
X98171000Y-130429000D03*
%TO.C,U3*%
X121539000Y-130429000D03*
X124079000Y-130429000D03*
X126619000Y-130429000D03*
X129159000Y-130429000D03*
X131699000Y-130429000D03*
X134239000Y-130429000D03*
X136779000Y-130429000D03*
%TO.C,U4*%
X161163000Y-130429000D03*
X163703000Y-130429000D03*
X166243000Y-130429000D03*
X168783000Y-130429000D03*
X171323000Y-130429000D03*
X173863000Y-130429000D03*
X176403000Y-130429000D03*
%TO.C,U5*%
X199771000Y-130429000D03*
X202311000Y-130429000D03*
X204851000Y-130429000D03*
X207391000Y-130429000D03*
X209931000Y-130429000D03*
X212471000Y-130429000D03*
X215011000Y-130429000D03*
%TO.C,U6*%
X237363000Y-130238500D03*
X239903000Y-130238500D03*
X242443000Y-130238500D03*
X244983000Y-130238500D03*
X247523000Y-130238500D03*
X250063000Y-130238500D03*
X252603000Y-130238500D03*
D12*
%TO.C,R1*%
X29672000Y-110998000D03*
X29672000Y-125476000D03*
%TO.C,R2*%
X69215000Y-112014000D03*
X69215000Y-126492000D03*
%TO.C,R3*%
X107823000Y-112014000D03*
X107823000Y-126492000D03*
%TO.C,R4*%
X147447000Y-112014000D03*
X147447000Y-126492000D03*
%TO.C,R5*%
X186055000Y-112014000D03*
X186055000Y-126492000D03*
%TO.C,R6*%
X223647000Y-111823500D03*
X223647000Y-126301500D03*
D13*
%TO.C,J1*%
X32131000Y-74549000D03*
X34671000Y-74549000D03*
%TO.C,J2*%
X57531000Y-74549000D03*
X60071000Y-74549000D03*
%TO.C,J3*%
X80391000Y-74549000D03*
X82931000Y-74549000D03*
%TO.C,J4*%
X103251000Y-74549000D03*
X105791000Y-74549000D03*
%TO.C,J5*%
X126111000Y-74549000D03*
X128651000Y-74549000D03*
%TO.C,J6*%
X148971000Y-74549000D03*
X151511000Y-74549000D03*
D14*
%TO.C,C1*%
X40340000Y-115697000D03*
X40340000Y-120697000D03*
%TO.C,C2*%
X79883000Y-116713000D03*
X79883000Y-121713000D03*
%TO.C,C3*%
X118491000Y-116713000D03*
X118491000Y-121713000D03*
%TO.C,C4*%
X158115000Y-116713000D03*
X158115000Y-121713000D03*
%TO.C,C5*%
X196723000Y-116713000D03*
X196723000Y-121713000D03*
%TO.C,C6*%
X234315000Y-116522500D03*
X234315000Y-121522500D03*
D15*
%TO.C,J15*%
X265811000Y-77089000D03*
%TO.C,J16*%
X265811000Y-89789000D03*
%TO.C,J14*%
X265811000Y-96139000D03*
%TO.C,J13*%
X265811000Y-108839000D03*
D16*
%TO.C,J7*%
X53040000Y-118237000D03*
X57000000Y-118237000D03*
%TO.C,J8*%
X92583000Y-119253000D03*
X96543000Y-119253000D03*
%TO.C,J9*%
X131191000Y-119253000D03*
X135151000Y-119253000D03*
%TO.C,J10*%
X170815000Y-119253000D03*
X174775000Y-119253000D03*
%TO.C,J11*%
X209423000Y-119253000D03*
X213383000Y-119253000D03*
%TO.C,J12*%
X247015000Y-119062500D03*
X250975000Y-119062500D03*
D17*
%TO.C,J1*%
X29591000Y-69469000D03*
X39751000Y-69469000D03*
%TO.C,J2*%
X54991000Y-69469000D03*
X65151000Y-69469000D03*
%TO.C,J3*%
X77851000Y-69469000D03*
X88011000Y-69469000D03*
%TO.C,J4*%
X100711000Y-69469000D03*
X110871000Y-69469000D03*
%TO.C,J5*%
X123571000Y-69469000D03*
X133731000Y-69469000D03*
%TO.C,J6*%
X146431000Y-69469000D03*
X156591000Y-69469000D03*
M02*
